<svg width="45" height="45" viewBox="0 0 45 45" fill="none" xmlns="http://www.w3.org/2000/svg">
<g clip-path="url(#clip0_321_19)">
<path d="M22.4999 0.899902C10.5704 0.899902 0.899902 10.5704 0.899902 22.4999C0.899902 34.4294 10.5704 44.0999 22.4999 44.0999C34.4294 44.0999 44.0999 34.4294 44.0999 22.4999C44.0999 10.5704 34.4294 0.899902 22.4999 0.899902ZM27.6164 15.8264H24.3697C23.9849 15.8264 23.5574 16.3327 23.5574 17.0054V19.3499H27.6187L27.0044 22.6934H23.5574V32.7307H19.7257V22.6934H16.2494V19.3499H19.7257V17.3834C19.7257 14.5619 21.6832 12.2692 24.3697 12.2692H27.6164V15.8264V15.8264Z" fill="white"/>
</g>
<defs>
<clipPath id="clip0_321_19">
<rect width="45" height="45" fill="white"/>
</clipPath>
</defs>
</svg>
