<svg width="45" height="45" viewBox="0 0 45 45" fill="none" xmlns="http://www.w3.org/2000/svg">
<g clip-path="url(#clip0_321_17)">
<path d="M31.6359 15.5883C31.4407 15.0826 31.1417 14.6234 30.7582 14.2404C30.3747 13.8573 29.9153 13.5588 29.4094 13.3641C28.7128 13.1061 27.9771 12.9697 27.2344 12.9609C25.9992 12.9047 25.6289 12.8906 22.5 12.8906C19.3711 12.8906 19.0008 12.9047 17.7656 12.9609C17.0221 12.9694 16.2856 13.1058 15.5883 13.3641C15.0826 13.5593 14.6235 13.8583 14.2404 14.2418C13.8573 14.6253 13.5588 15.0848 13.3641 15.5906C13.1061 16.2872 12.9697 17.0229 12.9609 17.7656C12.9047 19.0008 12.8906 19.3711 12.8906 22.5C12.8906 25.6289 12.9047 25.9992 12.9609 27.2344C12.9695 27.9779 13.1058 28.7144 13.3641 29.4117C13.5593 29.9174 13.8583 30.3765 14.2418 30.7596C14.6253 31.1427 15.0848 31.4412 15.5906 31.6359C16.2872 31.8939 17.0229 32.0303 17.7656 32.0391C19.0008 32.0953 19.3711 32.107 22.5 32.107C25.6289 32.107 25.9992 32.0953 27.2344 32.0367C27.9778 32.029 28.7143 31.8934 29.4117 31.6359C29.9174 31.4407 30.3766 31.1417 30.7596 30.7582C31.1427 30.3747 31.4412 29.9152 31.6359 29.4094C31.8939 28.7128 32.0303 27.9771 32.0391 27.2344C32.0953 25.9992 32.107 25.6289 32.107 22.5C32.107 19.3711 32.0953 19.0008 32.0367 17.7656C32.029 17.0222 31.8934 16.2857 31.6359 15.5883ZM22.5 28.5187C21.3096 28.5187 20.146 28.1658 19.1562 27.5044C18.1664 26.8431 17.395 25.9031 16.9394 24.8033C16.4839 23.7035 16.3647 22.4933 16.5969 21.3258C16.8291 20.1583 17.4024 19.0858 18.2441 18.2441C19.0858 17.4024 20.1583 16.8291 21.3258 16.5969C22.4933 16.3647 23.7035 16.4839 24.8033 16.9394C25.9031 17.3949 26.8431 18.1664 27.5044 19.1562C28.1658 20.1459 28.5188 21.3096 28.5188 22.5C28.5188 24.0963 27.8846 25.6272 26.7559 26.7559C25.6272 27.8846 24.0963 28.5187 22.5 28.5187ZM28.7555 17.6508C28.4773 17.6508 28.2055 17.5683 27.9742 17.4138C27.7429 17.2593 27.5627 17.0396 27.4563 16.7827C27.3498 16.5257 27.322 16.243 27.3762 15.9702C27.4305 15.6974 27.5644 15.4468 27.7611 15.2502C27.9578 15.0535 28.2083 14.9196 28.4811 14.8653C28.7539 14.811 29.0367 14.8389 29.2936 14.9453C29.5506 15.0518 29.7702 15.232 29.9247 15.4633C30.0793 15.6945 30.1617 15.9664 30.1617 16.2445C30.1617 16.6175 30.0136 16.9752 29.7498 17.2389C29.4861 17.5026 29.1284 17.6508 28.7555 17.6508ZM26.407 22.5C26.407 23.2727 26.1779 24.0281 25.7486 24.6706C25.3193 25.3131 24.7091 25.8139 23.9952 26.1096C23.2812 26.4053 22.4957 26.4827 21.7378 26.332C20.9799 26.1812 20.2837 25.8091 19.7373 25.2627C19.1909 24.7163 18.8188 24.0201 18.6681 23.2622C18.5173 22.5043 18.5947 21.7188 18.8904 21.0048C19.1861 20.2909 19.6869 19.6807 20.3294 19.2514C20.9719 18.8221 21.7273 18.593 22.5 18.593C23.5362 18.593 24.53 19.0046 25.2627 19.7373C25.9954 20.47 26.407 21.4638 26.407 22.5ZM22.5 0C18.0499 0 13.6998 1.3196 9.99968 3.79193C6.29957 6.26426 3.41569 9.77828 1.71272 13.8896C0.00974885 18.001 -0.435826 22.525 0.432341 26.8895C1.30051 31.2541 3.44343 35.2632 6.59011 38.4099C9.73679 41.5566 13.7459 43.6995 18.1105 44.5677C22.475 45.4358 26.999 44.9903 31.1104 43.2873C35.2217 41.5843 38.7357 38.7004 41.2081 35.0003C43.6804 31.3002 45 26.9501 45 22.5C45 16.5326 42.6295 10.8097 38.4099 6.5901C34.1903 2.37053 28.4674 0 22.5 0V0ZM34.1484 27.3305C34.1286 28.303 33.944 29.265 33.6024 30.1758C33.3014 30.9541 32.8411 31.6609 32.251 32.251C31.6609 32.8411 30.9541 33.3013 30.1758 33.6023C29.2658 33.9437 28.3045 34.1283 27.3328 34.1484C26.0813 34.2047 25.6828 34.2187 22.5 34.2187C19.3172 34.2187 18.9188 34.2047 17.6672 34.1484C16.6955 34.1283 15.7342 33.9437 14.8242 33.6023C14.0459 33.3013 13.3391 32.8411 12.749 32.251C12.1589 31.6609 11.6987 30.9541 11.3977 30.1758C11.0563 29.2658 10.8717 28.3045 10.8516 27.3328C10.7953 26.0812 10.7813 25.6828 10.7813 22.5C10.7813 19.3172 10.7953 18.9187 10.8516 17.6672C10.8709 16.6956 11.0548 15.7344 11.3953 14.8242C11.6963 14.0452 12.1568 13.3378 12.7473 12.7473C13.3378 12.1568 14.0453 11.6963 14.8242 11.3953C15.7344 11.0548 16.6956 10.8709 17.6672 10.8516C18.9188 10.7953 19.3172 10.7812 22.5 10.7812C25.6828 10.7812 26.0813 10.7953 27.3328 10.8516C28.3044 10.8709 29.2657 11.0548 30.1758 11.3953C30.9543 11.6966 31.6613 12.1572 32.2514 12.7477C32.8415 13.3382 33.3016 14.0455 33.6024 14.8242C33.9437 15.7342 34.1283 16.6955 34.1484 17.6672C34.2047 18.9187 34.2188 19.3172 34.2188 22.5C34.2188 25.6828 34.2047 26.0812 34.1484 27.3328V27.3305Z" fill="white"/>
</g>
<defs>
<clipPath id="clip0_321_17">
<rect width="45" height="45" fill="white"/>
</clipPath>
</defs>
</svg>
