<svg xmlns="http://www.w3.org/2000/svg" viewBox="0 0 398.6 452.32"><defs><style>.cls-1,.cls-2,.cls-3{fill:#7bcfb8;}.cls-2{font-size:27px;font-family:Poppins-Regular, Poppins;letter-spacing:0.03em;}.cls-3{font-size:83px;font-family:Bavarian;letter-spacing:0em;}</style></defs><g id="Layer_2" data-name="Layer 2"><g id="Layer_2-2" data-name="Layer 2"><path class="cls-1" d="M4,226.44c28.71.65,65.8-9,86.06-30.13,5.27-5.49,8.3-11.56,11.16-18.72a195.07,195.07,0,0,0,7.37-22.32c2.27-8,3.71-15.83,6.54-24,3.6-10.65,10.27-19.3,20.72-24.32,18.36-8.75,39.33-10.8,57.49-19.26,8.87-4.34,17.45-10.68,23.36-18.25a36.22,36.22,0,0,0,7.9-18.06c1.58-12.56-5.94-26.63-17.29-32.25C189.4,10.26,165.37,21,162.2,41.43a34.48,34.48,0,0,0,3.66,22.68,55.42,55.42,0,0,0,20,19.09c9.81,5.68,20.94,8.78,32,11,16.18,3.11,34,4.72,48.94,13.22,7.51,4.19,13.89,11.39,16,19.9l.87,3c4.54,15.46,6.54,31.22,13.12,45.88,10.5,24.43,33.21,45.23,60.35,48,12,1.06,23.75-1.27,35.52-3.88a.75.75,0,0,1,.89.57.76.76,0,0,1-.48.87c-15.4,5.63-32.35,10-48.84,6.4-16.69-3.77-31.72-13.35-43.1-26-18.56-20.72-22.12-42.83-29.78-68.2l-.89-2.79c-2.37-9.22-11.6-13.43-20.24-16.1-11.39-3.48-22.77-4.67-34.9-6.76-12.73-2.28-25.4-5.74-36.8-12.12-10.89-6-20.67-14.94-26.77-25.91A49.1,49.1,0,0,1,151.36,25c11.32-22.28,41-31.38,63.15-20.11,27.87,14.64,34.61,50.36,14.58,74.45C220.35,90,209.3,97.65,196.93,103.05c-16.26,6.79-33.59,9-49.8,14.91-9.84,3.38-15.29,8.08-18.93,18.14-2.63,7.17-4.37,15.33-6.65,22.86-3.64,12.18-7.61,24.14-14.25,35.37C95.3,213,74,222.85,53.16,227.54c-16.21,3.38-33.23,4.25-49.42.38A.75.75,0,0,1,3.2,227a.76.76,0,0,1,.76-.57Z"/><path class="cls-1" d="M157.45,160.93c14.55,7,9.07,29,8.46,41.46a64.26,64.26,0,0,0,.55,12.91c7.07,42.95,42.93,67.79,82.36,79.23,21.52,6.2,44.89,6.47,65.8-2,12.45-4.76,24.1-9.74,28.58-22,4.48-11.77-6.68-19.29-17.36-18.46a139.63,139.63,0,0,0-20,3c-11.17,2.5-21.7,6.47-32.45,11-17.11,7.45-34.79,14.16-52,22-17.49,7.79-35.2,15.73-54.2,19.88a131.93,131.93,0,0,1-73.09-5c-9.93-3.8-19.48-8.43-26.14-17.37-12.1-16.37-6.79-40.77,9-52.74,11.63-9.18,26.25-7.64,39.29-3.36,5.88,1.83,11.1,3.87,16.69,5.53l10.2,2.89,34,9.63c16.45,5.17,31.35,5.6,46-3.93C239.34,234,242.74,213.44,244.9,196c.95-7.08,1-14.25,2.61-21.31a33.31,33.31,0,0,1,2.51-7.25,24.48,24.48,0,0,1,4.31-6.23,1.11,1.11,0,0,1,1.82,1.21c-3.71,8.74-1.92,17.71-1.34,26.82.59,9.87.47,19.65-1.7,29.43-2.8,12.33-9.3,25.37-20.24,33.18-10.58,7.6-23.71,12.29-36.84,11.6a88.53,88.53,0,0,1-22.29-4.1l-20.42-5.78c-7.77-2.26-19.71-5.44-27.36-7.84-11.72-3.55-25-10.37-36.83-5.83-13.93,6-20.44,26-11.24,38.51,3.33,4.61,9,8.14,14.43,10.6a104.51,104.51,0,0,0,18.91,6.41c51,12.21,86.08-11.68,131.45-29.76,21-8.19,41.61-18.73,64.1-23a166.86,166.86,0,0,1,17.78-2.41c8.72-.69,18.15,2,24.53,8.46,11.86,11.48,6.88,29.45-3.75,39.79-5.79,5.83-12.65,9.24-19.85,12.28a138.79,138.79,0,0,1-20.95,7.09c-24.23,5.75-49.79,1.91-72.69-7.1a149.17,149.17,0,0,1-38.47-21.22A102.47,102.47,0,0,1,165,245.31c-6.69-13.26-11.17-28.63-9.66-43.77.89-8.93,4.8-18.4,4.77-27.27,0-4.2-.77-8.23-3.85-11.53a1.11,1.11,0,0,1,1.23-1.81Z"/><text class="cls-2" transform="translate(0 436.87)">Focus on your development</text><text class="cls-3" transform="translate(0.6 390.89)">Thera - Uni</text></g></g></svg>